<?xml version="1.0" encoding="UTF-8"?>
<svg version="1.1" xmlns="http://www.w3.org/2000/svg" width="84" height="120">
<path d="M0 0 C27.72 0 55.44 0 84 0 C84 39.6 84 79.2 84 120 C56.28 120 28.56 120 0 120 C0 80.4 0 40.8 0 0 Z " fill="#FEFBFA" transform="translate(0,0)"/>
<path d="M0 0 C0.86124481 -0.00953201 1.72248962 -0.01906403 2.60983276 -0.02888489 C3.99430099 -0.02751778 3.99430099 -0.02751778 5.40673828 -0.02612305 C6.36347443 -0.03040817 7.32021057 -0.0346933 8.30593872 -0.03910828 C10.32830006 -0.04484666 12.35068205 -0.04535546 14.37304688 -0.04101562 C17.4588568 -0.0378604 20.54370343 -0.0613047 23.62939453 -0.08666992 C25.59684124 -0.08894351 27.56429052 -0.08964613 29.53173828 -0.08862305 C30.45066864 -0.09783279 31.369599 -0.10704254 32.31637573 -0.11653137 C38.69657208 -0.07072313 42.95938665 0.98911085 47.91455078 5.2746582 C50.4219265 8.24636276 50.98580145 11.18200319 50.96923828 15.0246582 C50.15022752 20.04327731 47.71288032 24.68360396 45.60205078 29.2746582 C46.52501953 29.40227539 47.44798828 29.52989258 48.39892578 29.66137695 C52.29425534 30.40719005 54.51212635 31.81676377 57.60205078 34.2746582 C60.77203258 39.35750219 60.22241525 45.17979973 59.08007812 50.87866211 C58.38817837 53.47612183 57.61263811 56.02838792 56.78955078 58.5871582 C56.52851562 59.45405273 56.26748047 60.32094727 55.99853516 61.21411133 C53.87544232 68.05518824 51.89662961 72.94624889 45.79048157 77.19471741 C41.54201996 79.29123654 37.06069643 78.98500408 32.41064453 78.9387207 C31.347173 78.94350433 30.28370148 78.94828796 29.18800354 78.95321655 C26.94815586 78.95660738 24.70825814 78.9474625 22.46850586 78.92651367 C19.04640182 78.89971186 15.6275698 78.92630506 12.20556641 78.95825195 C10.02391857 78.95494823 7.84227276 78.94854278 5.66064453 78.9387207 C4.64175644 78.94884186 3.62286835 78.95896301 2.57310486 78.96939087 C-1.98332758 78.89442709 -5.36429646 78.81782793 -9.02661133 75.9206543 C-12.49350886 72.05220629 -12.5299184 69.25053796 -12.57495117 64.23022461 C-12.58778641 62.98528229 -12.60062164 61.74033997 -12.61384583 60.45767212 C-12.62201287 59.09719237 -12.62945667 57.73670811 -12.63623047 56.3762207 C-12.640306 55.69016125 -12.64438152 55.00410179 -12.64858055 54.29725266 C-12.6694187 50.6670029 -12.68373098 47.03679071 -12.69311523 43.40649414 C-12.70418448 39.66153454 -12.73859575 35.91716834 -12.77828693 32.17241859 C-12.80445473 29.2881664 -12.81280707 26.40405574 -12.81639671 23.51969528 C-12.82126111 22.13940796 -12.83287114 20.7591269 -12.85143471 19.37895584 C-12.87582808 17.44541024 -12.87244114 15.51157504 -12.86791992 13.57788086 C-12.87378616 12.4788443 -12.8796524 11.37980774 -12.88569641 10.24746704 C-12.27595779 6.53112301 -11.03535326 4.92444 -8.39794922 2.2746582 C-5.55717667 0.41161512 -3.36657051 0.02055334 0 0 Z " fill="#DF4425" transform="translate(19.39794921875,7.725341796875)"/>
<path d="M0 0 C7.33228928 -0.07601651 14.66447707 -0.12858578 21.99707031 -0.16479492 C24.49190061 -0.17988855 26.98670435 -0.20036548 29.48144531 -0.22631836 C33.06582186 -0.2626754 36.64984782 -0.27972078 40.234375 -0.29296875 C41.35116638 -0.30845261 42.46795776 -0.32393646 43.61859131 -0.33988953 C44.65936829 -0.34011612 45.70014526 -0.34034271 46.77246094 -0.34057617 C47.68735291 -0.34723801 48.60224487 -0.35389984 49.54486084 -0.36076355 C52.50733936 0.07454956 53.87435154 0.91249902 56 3 C56.8361343 9.03874769 54.99049545 14.52644764 53.25 20.25 C52.87101562 21.59578125 52.87101562 21.59578125 52.484375 22.96875 C52.2265625 23.82984375 51.96875 24.6909375 51.703125 25.578125 C51.47270508 26.35575195 51.24228516 27.13337891 51.00488281 27.93457031 C49.73713455 30.54029196 48.4464561 31.4666047 46 33 C43.81733704 33.36749268 43.81733704 33.36749268 41.4309082 33.35644531 C40.08480217 33.36094696 40.08480217 33.36094696 38.71150208 33.36553955 C37.7509642 33.35319275 36.79042633 33.34084595 35.80078125 33.328125 C34.80999069 33.32625183 33.81920013 33.32437866 32.79838562 33.32244873 C30.70792263 33.31573384 28.61747208 33.30183055 26.52709961 33.28125 C23.31417267 33.25001626 20.10173577 33.24027098 16.88867188 33.234375 C14.85936897 33.22520826 12.83007108 33.21483354 10.80078125 33.203125 C9.83417068 33.19887512 8.86756012 33.19462524 7.87165833 33.19024658 C6.53973701 33.17583527 6.53973701 33.17583527 5.1809082 33.16113281 C4.39577347 33.15430481 3.61063873 33.14747681 2.80171204 33.14044189 C1 33 1 33 0 32 C-0.0883967 29.6243148 -0.11530305 27.27791326 -0.09765625 24.90234375 C-0.0962413 24.19348526 -0.09482635 23.48462677 -0.09336853 22.75428772 C-0.08775443 20.48198288 -0.07519963 18.20977525 -0.0625 15.9375 C-0.05748681 14.40039204 -0.05292359 12.86328255 -0.04882812 11.32617188 C-0.03778042 7.55074358 -0.02050641 3.77538829 0 0 Z " fill="#FEFDFC" transform="translate(15,45)"/>
<path d="M0 0 C0.33 0.66 0.66 1.32 1 2 C0.67 2.66 0.34 3.32 0 4 C-0.08586809 6.32416296 -0.10711043 8.65083307 -0.09765625 10.9765625 C-0.0962413 11.66181 -0.09482635 12.3470575 -0.09336853 13.05307007 C-0.08776675 15.24375761 -0.07521406 17.4343433 -0.0625 19.625 C-0.05748522 21.10937352 -0.05292228 22.59374865 -0.04882812 24.078125 C-0.03779677 27.71878315 -0.02053099 31.35938164 0 35 C1.485 34.505 1.485 34.505 3 34 C3.33 33.34 3.66 32.68 4 32 C21.49 31.67 38.98 31.34 57 31 C57.495 29.515 57.495 29.515 58 28 C60.1875 27.6875 60.1875 27.6875 63 28 C68.80690234 33.01505202 68.80690234 33.01505202 69.1965332 37.02026367 C69.30778212 43.57614259 68.18809178 49.09316623 66.1875 55.3125 C65.92646484 56.17939453 65.66542969 57.04628906 65.39648438 57.93945312 C63.27339154 64.78053004 61.29457883 69.67159069 55.18843079 73.9200592 C50.93996918 76.01657833 46.45864565 75.71034588 41.80859375 75.6640625 C40.74512222 75.66884613 39.6816507 75.67362976 38.58595276 75.67855835 C36.34610508 75.68194918 34.10620736 75.6728043 31.86645508 75.65185547 C28.44435104 75.62505366 25.02551902 75.65164686 21.60351562 75.68359375 C19.42186779 75.68029003 17.24022198 75.67388458 15.05859375 75.6640625 C14.03970566 75.67418365 13.02081757 75.68430481 11.97105408 75.69473267 C7.41462164 75.61976889 4.03365276 75.54316973 0.37133789 72.64599609 C-3.10306225 68.7691765 -3.12991931 65.97034224 -3.16113281 60.93969727 C-3.17074036 59.69152725 -3.1803479 58.44335724 -3.19024658 57.15736389 C-3.19509399 55.7937132 -3.19937296 54.43006039 -3.203125 53.06640625 C-3.20887844 51.66780089 -3.21463615 50.26919554 -3.22039795 48.87059021 C-3.23089735 45.93935784 -3.23674724 43.00815282 -3.24023438 40.0769043 C-3.24572315 36.32298734 -3.26976337 32.56943235 -3.29820633 28.81562901 C-3.31683761 25.92712855 -3.32203851 23.03871531 -3.32357025 20.15015984 C-3.3265952 18.76627558 -3.33461849 17.38239279 -3.34775543 15.99856758 C-3.36482741 14.06235057 -3.36108919 12.12598397 -3.35644531 10.18969727 C-3.36009094 9.08844009 -3.36373657 7.98718292 -3.36749268 6.85255432 C-2.95988391 3.6886106 -2.12888147 2.32397691 0 0 Z M5 34 C4.97534608 38.53897705 4.95716211 43.07791543 4.94506836 47.61694336 C4.9400286 49.16219766 4.9331968 50.70744716 4.92456055 52.25268555 C4.91247924 54.46925029 4.90676827 56.68575218 4.90234375 58.90234375 C4.89718246 59.5971434 4.89202118 60.29194305 4.88670349 61.00779724 C4.88650723 62.6722933 4.93810871 64.33665499 5 66 C6.54986722 67.54986722 8.0240518 67.14237549 10.1809082 67.16113281 C11.51282951 67.17554413 11.51282951 67.17554413 12.87165833 67.19024658 C13.83826889 67.19449646 14.80487946 67.19874634 15.80078125 67.203125 C16.78870163 67.20882507 17.77662201 67.21452515 18.79447937 67.22039795 C20.89023767 67.22986488 22.98601096 67.23638862 25.08178711 67.24023438 C28.2885137 67.2499275 31.49459623 67.28092999 34.70117188 67.3125 C36.73437118 67.31903095 38.76757509 67.32428106 40.80078125 67.328125 C41.76131912 67.3404718 42.72185699 67.3528186 43.71150208 67.36553955 C44.6089061 67.36253845 45.50631012 67.35953735 46.4309082 67.35644531 C47.21842972 67.36009094 48.00595123 67.36373657 48.81733704 67.36749268 C51.57270643 66.90357402 52.94441936 65.85846389 55 64 C56.07532944 61.93327527 56.07532944 61.93327527 56.703125 59.578125 C56.9609375 58.71703125 57.21875 57.8559375 57.484375 56.96875 C57.86335938 55.62296875 57.86335938 55.62296875 58.25 54.25 C58.518125 53.36828125 58.78625 52.4865625 59.0625 51.578125 C60.49313719 46.6730832 61.71221815 42.14379776 61 37 C58.02769223 34.08103409 55.86585895 33.62961753 51.77246094 33.65942383 C50.73168396 33.65965042 49.69090698 33.65987701 48.61859131 33.66011047 C47.50179993 33.67559433 46.38500854 33.69107819 45.234375 33.70703125 C43.51157318 33.71339851 43.51157318 33.71339851 41.75396729 33.71989441 C38.0857397 33.73668667 34.41806153 33.77434102 30.75 33.8125 C28.26302877 33.82754608 25.77604892 33.84123461 23.2890625 33.85351562 C17.19252088 33.88659204 11.09629969 33.93679744 5 34 Z " fill="#DB4324" transform="translate(10,11)"/>
<path d="M0 0 C0.92133224 -0.00570007 1.84266449 -0.01140015 2.79191589 -0.01727295 C4.74643805 -0.0267394 6.70097628 -0.03326343 8.65551758 -0.03710938 C11.6449785 -0.04680047 14.63374793 -0.07780224 17.62304688 -0.109375 C19.51952716 -0.11590619 21.41601237 -0.12115621 23.3125 -0.125 C24.20741653 -0.1373468 25.10233307 -0.1496936 26.02436829 -0.16241455 C32.26949094 -0.14003154 32.26949094 -0.14003154 35.4519043 1.72363281 C35.91508057 2.21186523 36.37825684 2.70009766 36.85546875 3.203125 C36.36385729 10.08568539 34.86998616 16.18860759 29.85546875 21.203125 C26.84237924 21.37858982 23.92236421 21.43439945 20.91015625 21.3984375 C20.02514435 21.3956076 19.14013245 21.39277771 18.228302 21.38986206 C15.39555463 21.3786474 12.56312091 21.3535407 9.73046875 21.328125 C7.81250456 21.31809685 5.89453542 21.30897072 3.9765625 21.30078125 C-0.73059001 21.27870389 -5.43750741 21.24416545 -10.14453125 21.203125 C-10.17341271 17.89064313 -10.19128924 14.57819333 -10.20703125 11.265625 C-10.21541016 10.32009766 -10.22378906 9.37457031 -10.23242188 8.40039062 C-10.23564453 7.50126953 -10.23886719 6.60214844 -10.2421875 5.67578125 C-10.24742432 4.84312744 -10.25266113 4.01047363 -10.25805664 3.15258789 C-9.96936539 -1.80483072 -3.76359306 0.0177525 0 0 Z " fill="#FEFCFB" transform="translate(25.14453125,15.796875)"/>
<path d="M0 0 C1.77669223 3.06156654 2.24050818 5.24036215 2.1953125 8.765625 C2.18886719 9.65507812 2.18242187 10.54453125 2.17578125 11.4609375 C2.15902344 12.38132812 2.14226563 13.30171875 2.125 14.25 C2.11597656 15.18585937 2.10695313 16.12171875 2.09765625 17.0859375 C2.07413636 19.39088657 2.04126853 21.6953116 2 24 C7.5499697 24.17391434 13.0983314 24.30047214 18.65039062 24.38452148 C20.53608856 24.41957944 22.42159819 24.4672419 24.30664062 24.52807617 C36.60015594 25.44440185 36.60015594 25.44440185 47.28125 20.47265625 C48.9282331 18.64117783 48.9282331 18.64117783 50 17 C51.51953125 18.36328125 51.51953125 18.36328125 53 20 C52.6875 22.1875 52.6875 22.1875 52 24 C53.32 24.66 54.64 25.32 56 26 C56 26.99 56 27.98 56 29 C38.18 29 20.36 29 2 29 C1.67 29.99 1.34 30.98 1 32 C-0.98 32.495 -0.98 32.495 -3 33 C-3 22.44 -3 11.88 -3 1 C-2.01 0.67 -1.02 0.34 0 0 Z " fill="#E43A1A" transform="translate(12,14)"/>
<path d="M0 0 C17.16 0 34.32 0 52 0 C52 0.33 52 0.66 52 1 C35.5 1.33 19 1.66 2 2 C2 11.24 2 20.48 2 30 C4.25457031 30.06058594 6.50914063 30.12117188 8.83203125 30.18359375 C11.05300294 30.24567387 13.27393796 30.30893994 15.49487305 30.37231445 C17.02022942 30.41521661 18.54562019 30.45691568 20.07104492 30.49731445 C28.74850402 30.7279919 37.36455728 31.04648614 46 32 C46 32.33 46 32.66 46 33 C39.60962769 33.02527062 33.21926817 33.04283317 26.82885742 33.05493164 C24.65307127 33.05997308 22.47728853 33.06680607 20.30151367 33.07543945 C17.18146933 33.08751338 14.06146962 33.09323005 10.94140625 33.09765625 C9.47266808 33.10539818 9.47266808 33.10539818 7.97425842 33.11329651 C7.07340012 33.11337204 6.17254181 33.11344757 5.24438477 33.11352539 C4.44718521 33.115746 3.64998566 33.11796661 2.82862854 33.12025452 C1 33 1 33 0 32 C-0.08838648 29.62458949 -0.11537523 27.2776642 -0.09765625 24.90234375 C-0.09515869 23.60546631 -0.09266113 22.30858887 -0.09008789 20.97241211 C-0.08098389 19.31089111 -0.07187988 17.64937012 -0.0625 15.9375 C-0.041875 10.678125 -0.02125 5.41875 0 0 Z " fill="#FEE0D4" transform="translate(15,45)"/>
<path d="M0 0 C1.60875 -0.04125 3.2175 -0.0825 4.875 -0.125 C5.77992187 -0.14820312 6.68484375 -0.17140625 7.6171875 -0.1953125 C10 0 10 0 12 2 C12.5546875 4.49609375 12.5546875 4.49609375 12.875 7.4375 C12.99617188 8.40558594 13.11734375 9.37367187 13.2421875 10.37109375 C13 13 13 13 11.3046875 14.8359375 C7.48994361 16.76270645 4.22288847 16.1863039 0 16 C0 10.72 0 5.44 0 0 Z " fill="#D55E46" transform="translate(23,98)"/>
<path d="M0 0 C1.77206192 0.00015919 3.54412846 0.00585754 5.31616211 0.01586914 C6.24698105 0.01728409 7.17779999 0.01869904 8.13682556 0.02015686 C11.12241777 0.02577367 14.10793615 0.03832899 17.09350586 0.05102539 C19.11238499 0.05603823 21.13126529 0.06060151 23.15014648 0.06469727 C28.11046158 0.07574856 33.07072118 0.09302444 38.03100586 0.11352539 C38.03100586 0.44352539 38.03100586 0.77352539 38.03100586 1.11352539 C36.8955835 1.13858154 35.76016113 1.1636377 34.59033203 1.18945312 C30.38025505 1.28358115 26.17034098 1.38378876 21.96044922 1.48583984 C20.13789682 1.52916826 18.31530438 1.57084486 16.49267578 1.61083984 C13.87381925 1.66859301 11.25516391 1.73227295 8.63647461 1.79711914 C7.82075485 1.81383163 7.0050351 1.83054413 6.16459656 1.84776306 C2.88921042 1.93365784 0.15844185 2.07104673 -2.96899414 3.11352539 C-2.96899414 8.39352539 -2.96899414 13.67352539 -2.96899414 19.11352539 C9.57100586 19.11352539 22.11100586 19.11352539 35.03100586 19.11352539 C35.36100586 18.45352539 35.69100586 17.79352539 36.03100586 17.11352539 C36.03100586 18.10352539 36.03100586 19.09352539 36.03100586 20.11352539 C35.03100586 21.11352539 35.03100586 21.11352539 31.24560547 21.22705078 C29.55817857 21.22689162 27.87074681 21.22119456 26.18334961 21.21118164 C24.85370934 21.20905922 24.85370934 21.20905922 23.49720764 21.20689392 C20.65427332 21.20127755 17.81141655 21.1887223 14.96850586 21.17602539 C13.04598095 21.1710125 11.12345481 21.16644923 9.20092773 21.16235352 C4.47759037 21.1513028 -0.24568872 21.13402722 -4.96899414 21.11352539 C-4.99787561 17.80104352 -5.01575213 14.48859372 -5.03149414 11.17602539 C-5.03987305 10.23049805 -5.04825195 9.2849707 -5.05688477 8.31079102 C-5.06010742 7.41166992 -5.06333008 6.51254883 -5.06665039 5.58618164 C-5.07188721 4.75352783 -5.07712402 3.92087402 -5.08251953 3.06298828 C-4.86888283 -0.60559032 -3.85877397 0.11037276 0 0 Z " fill="#FEDED3" transform="translate(19.968994140625,15.886474609375)"/>
<path d="M0 0 C8.17817372 -0.36080178 8.17817372 -0.36080178 11.5625 1.125 C13.62848726 3.81976599 13.42151163 5.69815888 13 9 C11 11 11 11 9.0546875 11.1953125 C7.03645833 11.13020833 5.01822917 11.06510417 3 11 C3 12.98 3 14.96 3 17 C2.01 17 1.02 17 0 17 C0 11.39 0 5.78 0 0 Z " fill="#D96C54" transform="translate(50,97)"/>
<path d="M0 0 C3.96 0 7.92 0 12 0 C12 0.99 12 1.98 12 3 C9.03 3 6.06 3 3 3 C3 3.99 3 4.98 3 6 C5.31 6 7.62 6 10 6 C10 6.99 10 7.98 10 9 C7.69 9 5.38 9 3 9 C3 10.32 3 11.64 3 13 C5.97 13 8.94 13 12 13 C12 13.99 12 14.98 12 16 C8.04 16 4.08 16 0 16 C0 10.72 0 5.44 0 0 Z " fill="#D6654C" transform="translate(37,98)"/>
<path d="M0 0 C0.59651367 0.1429248 1.19302734 0.28584961 1.80761719 0.43310547 C12.86678058 2.69027875 24.01689553 2.21821349 35.25 2.125 C37.36327701 2.11495067 39.47655864 2.10582827 41.58984375 2.09765625 C46.72667817 2.07579629 51.86328721 2.04137377 57 2 C55.33648308 4.03868948 54.44307542 4.92010734 51.81265259 5.39440918 C50.53954727 5.40703796 50.53954727 5.40703796 49.24072266 5.41992188 C48.27607086 5.43583374 47.31141907 5.45174561 46.3175354 5.46813965 C45.27688934 5.46834106 44.23624329 5.46854248 43.1640625 5.46875 C42.09255951 5.47636353 41.02105652 5.48397705 39.91708374 5.49182129 C37.64917329 5.50263236 35.38121301 5.50547133 33.11328125 5.50097656 C29.6449861 5.5000056 26.1789123 5.54159 22.7109375 5.5859375 C20.50781712 5.5911454 18.30468904 5.59383268 16.1015625 5.59375 C14.54666611 5.6183429 14.54666611 5.6183429 12.96035767 5.64343262 C4.93703768 5.56653897 4.93703768 5.56653897 1.80615234 2.46289062 C1.21012207 1.65013672 0.6140918 0.83738281 0 0 Z " fill="#DC5C3F" transform="translate(9,81)"/>
<path d="M0 0 C0.33 0 0.66 0 1 0 C1 6.6 1 13.2 1 20 C14.2 20 27.4 20 41 20 C40.67 20.66 40.34 21.32 40 22 C34.32169922 22.02464705 28.64342931 22.04283462 22.96508789 22.05493164 C21.03181415 22.05997256 19.09854424 22.06680519 17.1652832 22.07543945 C14.39273128 22.08751565 11.62022959 22.09323057 8.84765625 22.09765625 C7.54297142 22.10539818 7.54297142 22.10539818 6.21192932 22.11329651 C4.14094186 22.11349185 2.07005676 22.06208168 0 22 C-1.58937556 20.41062444 -1.12981143 18.76100154 -1.1328125 16.5625 C-1.13410156 15.66789062 -1.13539062 14.77328125 -1.13671875 13.8515625 C-1.13091797 12.44003906 -1.13091797 12.44003906 -1.125 11 C-1.12886719 10.05898438 -1.13273438 9.11796875 -1.13671875 8.1484375 C-1.13542969 7.25382812 -1.13414063 6.35921875 -1.1328125 5.4375 C-1.13112061 4.19806641 -1.13112061 4.19806641 -1.12939453 2.93359375 C-1 1 -1 1 0 0 Z " fill="#CF4C31" transform="translate(14,17)"/>
<path d="M0 0 C0.33 0 0.66 0 1 0 C1 5.28 1 10.56 1 16 C1.99 16 2.98 16 4 16 C4 14.02 4 12.04 4 10 C6.31 10 8.62 10 11 10 C11 10.33 11 10.66 11 11 C9.02 11 7.04 11 5 11 C5 12.98 5 14.96 5 17 C-0.28 17 -5.56 17 -11 17 C-11 16.67 -11 16.34 -11 16 C-7.37 16 -3.74 16 0 16 C0 15.01 0 14.02 0 13 C-2.97 13 -5.94 13 -9 13 C-9 11.68 -9 10.36 -9 9 C-6.69 9 -4.38 9 -2 9 C-2 8.01 -2 7.02 -2 6 C-4.31 6 -6.62 6 -9 6 C-9 5.01 -9 4.02 -9 3 C-6.03 3 -3.06 3 0 3 C0 2.01 0 1.02 0 0 Z " fill="#FEE3D7" transform="translate(49,98)"/>
<path d="M0 0 C8.58 0 17.16 0 26 0 C26 0.33 26 0.66 26 1 C22.04 1 18.08 1 14 1 C14 5.62 14 10.24 14 15 C13.01 15 12.02 15 11 15 C11.33 14.67 11.66 14.34 12 14 C11.93607199 12.16352258 11.79944271 10.32929108 11.625 8.5 C11.53476562 7.4996875 11.44453125 6.499375 11.3515625 5.46875 C11.26065029 3.06053216 11.26065029 3.06053216 10 2 C8.31816052 1.76712992 6.6287584 1.58735834 4.9375 1.4375 C4.01839844 1.35371094 3.09929688 1.26992187 2.15234375 1.18359375 C1.08693359 1.09271484 1.08693359 1.09271484 0 1 C0 0.67 0 0.34 0 0 Z " fill="#FAD3C3" transform="translate(23,97)"/>
<path d="M0 0 C1.98 0 3.96 0 6 0 C4.68 0.33 3.36 0.66 2 1 C2.33 2.65 2.66 4.3 3 6 C4.65 6.33 6.3 6.66 8 7 C8 7.66 8 8.32 8 9 C6.02 9 4.04 9 2 9 C2 10.65 2 12.3 2 14 C1.34 14 0.68 14 0 14 C0 9.38 0 4.76 0 0 Z " fill="#CF4529" transform="translate(51,99)"/>
<path d="M0 0 C4.875 3.625 4.875 3.625 6 7 C6.03954234 9.33299825 6.04401732 11.66708189 6 14 C5.67 14 5.34 14 5 14 C5 12.02 5 10.04 5 8 C4.34 8 3.68 8 3 8 C3 7.01 3 6.02 3 5 C2.01 5 1.02 5 0 5 C-0.33 7.64 -0.66 10.28 -1 13 C-1.33 13 -1.66 13 -2 13 C-2.66 10.69 -3.32 8.38 -4 6 C-3.01 5.34 -2.02 4.68 -1 4 C-0.27617533 1.94074861 -0.27617533 1.94074861 0 0 Z " fill="#D84D33" transform="translate(64,11)"/>
<path d="M0 0 C2.97 0 5.94 0 9 0 C9 0.33 9 0.66 9 1 C7.02 1.33 5.04 1.66 3 2 C2.67 3.32 2.34 4.64 2 6 C3.65 6 5.3 6 7 6 C7 6.33 7 6.66 7 7 C5.35 7 3.7 7 2 7 C2 9.31 2 11.62 2 14 C1.34 14 0.68 14 0 14 C0 9.38 0 4.76 0 0 Z " fill="#D24328" transform="translate(24,98)"/>
<path d="M0 0 C3 1 3 1 4 3 C4.53789246 9.33058054 4.5599517 14.51174113 1 20 C0.06576355 16.98968256 -0.04449911 16.13349732 1 13 C1.09308544 11.33541327 1.12996185 9.66718003 1.125 8 C1.12886719 6.700625 1.12886719 6.700625 1.1328125 5.375 C1.09594205 2.84988305 1.09594205 2.84988305 0 0 Z " fill="#FDDBCF" transform="translate(77,43)"/>
<path d="M0 0 C1.98 0 3.96 0 6 0 C6.5625 1.9375 6.5625 1.9375 7 4 C6 5 6 5 2.9375 5.0625 C1.4834375 5.0315625 1.4834375 5.0315625 0 5 C0 3.35 0 1.7 0 0 Z " fill="#FECFC1" transform="translate(26,106)"/>
<path d="M0 0 C1.32 0 2.64 0 4 0 C4.32712342 6.13053511 4.39366878 10.62669111 1 16 C0.06576355 12.98968256 -0.04449911 12.13349732 1 9 C1.3053818 4.345203 1.3053818 4.345203 0 0 Z " fill="#D5563C" transform="translate(69,46)"/>
<path d="M0 0 C2.33294775 -0.04241723 4.66702567 -0.04092937 7 0 C8 1 8 1 8.0625 3.5625 C8.041875 4.366875 8.02125 5.17125 8 6 C7.67 4.68 7.34 3.36 7 2 C6.34 2 5.68 2 5 2 C5 2.66 5 3.32 5 4 C3.02 4 1.04 4 -1 4 C-0.67 2.68 -0.34 1.36 0 0 Z " fill="#E58F77" transform="translate(27,99)"/>
<path d="M0 0 C0.23460937 0.64453125 0.46921875 1.2890625 0.7109375 1.953125 C1.81161073 4.2077908 1.81161073 4.2077908 4.1640625 4.609375 C4.97617187 4.65578125 5.78828125 4.7021875 6.625 4.75 C7.85089844 4.83507812 7.85089844 4.83507812 9.1015625 4.921875 C9.72804688 4.94765625 10.35453125 4.9734375 11 5 C11 5.66 11 6.32 11 7 C7.37 7 3.74 7 0 7 C0 4.69 0 2.38 0 0 Z " fill="#C7482B" transform="translate(38,106)"/>
<path d="M0 0 C2.31 0 4.62 0 7 0 C7 1.32 7 2.64 7 4 C4.69 4 2.38 4 0 4 C0 2.68 0 1.36 0 0 Z " fill="#FFE3D2" transform="translate(53,101)"/>
<path d="M0 0 C3.63 0 7.26 0 11 0 C11 0.99 11 1.98 11 3 C9.54257537 3.08096803 8.08387193 3.13917774 6.625 3.1875 C5.81289063 3.22230469 5.00078125 3.25710937 4.1640625 3.29296875 C3.44992188 3.19628906 2.73578125 3.09960938 2 3 C1.34 2.01 0.68 1.02 0 0 Z " fill="#D06048" transform="translate(38,98)"/>
<path d="M0 0 C-1.32 0.33 -2.64 0.66 -4 1 C-3.01 2.32 -2.02 3.64 -1 5 C-1.33 5.66 -1.66 6.32 -2 7 C-2.66 7 -3.32 7 -4 7 C-4.33 6.34 -4.66 5.68 -5 5 C-5.66 5 -6.32 5 -7 5 C-6.625 2.5625 -6.625 2.5625 -6 0 C-3.50907189 -1.24546405 -2.58919267 -0.7767578 0 0 Z " fill="#DD4226" transform="translate(17,10)"/>
</svg>
